<svg viewBox="0 0 38 39" fill="currentColor" xmlns="http://www.w3.org/2000/svg">
	<mask id="path-1-inside-1_395_689">
		<path
			fill-rule="evenodd"
			clip-rule="evenodd"
			d="M30.875 18.3125H33.25V20.6875H30.875V18.3125ZM27.8587 11.9713L26.2152 10.3242L27.8587 8.6783L29.5022 10.3242L27.8587 11.9713ZM27.5464 29.228L25.8673 27.5489L27.5464 25.8698L29.2256 27.5489L27.5464 29.228ZM20.1875 19.5285C20.1875 20.184 19.6567 20.7148 19 20.7148H8.3125C7.65581 20.7148 7.125 20.184 7.125 19.5285C7.125 18.873 7.65581 18.3398 8.3125 18.3398H17.8125V6.4375C17.8125 5.78081 18.3445 5.25 19 5.25C19.6567 5.25 20.1875 5.78081 20.1875 6.4375V19.5285ZM17.8125 31.375H20.1875V33.75H17.8125V31.375ZM9.63894 29.2601L7.99544 27.613L9.63894 25.9659L11.2824 27.613L9.63894 29.2601ZM9.83014 8.70443L11.5092 10.3836L9.83014 12.0627L8.15102 10.3836L9.83014 8.70443ZM19 0.5C8.50606 0.5 0 9.00725 0 19.5C0 29.9939 8.50606 38.5 19 38.5C29.4939 38.5 38 29.9939 38 19.5C38 9.00725 29.4939 0.5 19 0.5Z"
		/>
	</mask>
	<path
		fill-rule="evenodd"
		clip-rule="evenodd"
		d="M30.875 18.3125H33.25V20.6875H30.875V18.3125ZM27.8587 11.9713L26.2152 10.3242L27.8587 8.6783L29.5022 10.3242L27.8587 11.9713ZM27.5464 29.228L25.8673 27.5489L27.5464 25.8698L29.2256 27.5489L27.5464 29.228ZM20.1875 19.5285C20.1875 20.184 19.6567 20.7148 19 20.7148H8.3125C7.65581 20.7148 7.125 20.184 7.125 19.5285C7.125 18.873 7.65581 18.3398 8.3125 18.3398H17.8125V6.4375C17.8125 5.78081 18.3445 5.25 19 5.25C19.6567 5.25 20.1875 5.78081 20.1875 6.4375V19.5285ZM17.8125 31.375H20.1875V33.75H17.8125V31.375ZM9.63894 29.2601L7.99544 27.613L9.63894 25.9659L11.2824 27.613L9.63894 29.2601ZM9.83014 8.70443L11.5092 10.3836L9.83014 12.0627L8.15102 10.3836L9.83014 8.70443ZM19 0.5C8.50606 0.5 0 9.00725 0 19.5C0 29.9939 8.50606 38.5 19 38.5C29.4939 38.5 38 29.9939 38 19.5C38 9.00725 29.4939 0.5 19 0.5Z"
	/>
	<path
		d="M30.875 18.3125V-6.6875H5.875V18.3125H30.875ZM33.25 18.3125H58.25V-6.6875H33.25V18.3125ZM33.25 20.6875V45.6875H58.25V20.6875H33.25ZM30.875 20.6875H5.875V45.6875H30.875V20.6875ZM27.8587 11.9713L10.162 29.6298L27.8587 47.3648L45.5555 29.6298L27.8587 11.9713ZM26.2152 10.3242L8.52472 -7.34061L-9.10821 10.318L8.5185 27.9828L26.2152 10.3242ZM27.8587 8.6783L45.5493 -8.98651L27.8587 -26.7028L10.1682 -8.98651L27.8587 8.6783ZM29.5022 10.3242L47.199 27.9828L64.8257 10.318L47.1928 -7.34061L29.5022 10.3242ZM27.5464 29.228L9.86895 46.9058L27.5464 64.5829L45.2239 46.9058L27.5464 29.228ZM25.8673 27.5489L8.18963 9.87122L-9.48823 27.5491L8.18982 45.2268L25.8673 27.5489ZM27.5464 25.8698L45.2241 8.1921L27.5464 -9.48557L9.86876 8.1921L27.5464 25.8698ZM29.2256 27.5489L46.903 45.2268L64.5811 27.5491L46.9032 9.87122L29.2256 27.5489ZM17.8125 18.3398V43.3398H42.8125V18.3398H17.8125ZM17.8125 31.375V6.375H-7.1875V31.375H17.8125ZM20.1875 31.375H45.1875V6.375H20.1875V31.375ZM20.1875 33.75V58.75H45.1875V33.75H20.1875ZM17.8125 33.75H-7.1875V58.75H17.8125V33.75ZM9.63894 29.2601L-8.0578 46.9186L9.63894 64.6536L27.3357 46.9186L9.63894 29.2601ZM7.99544 27.613L-9.7013 9.95442L-27.3218 27.613L-9.7013 45.2716L7.99544 27.613ZM9.63894 25.9659L27.3357 8.30737L9.63894 -9.42761L-8.0578 8.30737L9.63894 25.9659ZM11.2824 27.613L28.9792 45.2716L46.5997 27.613L28.9792 9.95442L11.2824 27.613ZM9.83014 8.70443L27.508 -8.97305L9.83033 -26.6511L-7.84753 -8.97324L9.83014 8.70443ZM11.5092 10.3836L29.1871 28.061L46.8642 10.3836L29.1871 -7.29392L11.5092 10.3836ZM9.83014 12.0627L-7.84753 29.7404L9.83033 47.4182L27.508 29.7402L9.83014 12.0627ZM8.15102 10.3836L-9.52665 -7.29411L-27.2043 10.3836L-9.52665 28.0612L8.15102 10.3836ZM30.875 43.3125H33.25V-6.6875H30.875V43.3125ZM8.25 18.3125V20.6875H58.25V18.3125H8.25ZM33.25 -4.3125H30.875V45.6875H33.25V-4.3125ZM55.875 20.6875V18.3125H5.875V20.6875H55.875ZM45.5555 -5.68733L43.912 -7.33438L8.5185 27.9828L10.162 29.6298L45.5555 -5.68733ZM43.9058 27.989L45.5493 26.3431L10.1682 -8.98651L8.52472 -7.34061L43.9058 27.989ZM10.1682 26.3431L11.8117 27.989L47.1928 -7.34061L45.5493 -8.98651L10.1682 26.3431ZM11.8055 -7.33438L10.162 -5.68733L45.5555 29.6298L47.199 27.9828L11.8055 -7.33438ZM45.2239 11.5501L43.5448 9.87103L8.18982 45.2268L9.86895 46.9058L45.2239 11.5501ZM43.545 45.2266L45.2241 43.5474L9.86876 8.1921L8.18963 9.87122L43.545 45.2266ZM9.86876 43.5474L11.5479 45.2266L46.9032 9.87122L45.2241 8.1921L9.86876 43.5474ZM11.5481 9.87103L9.86895 11.5501L45.2239 46.9058L46.903 45.2268L11.5481 9.87103ZM-4.8125 19.5285C-4.8125 6.36134 5.8651 -4.28518 19 -4.28518V45.7148C33.4483 45.7148 45.1875 34.0066 45.1875 19.5285H-4.8125ZM19 -4.28518H8.3125V45.7148H19V-4.28518ZM8.3125 -4.28518C21.4474 -4.28518 32.125 6.36134 32.125 19.5285H-17.875C-17.875 34.0066 -6.13577 45.7148 8.3125 45.7148V-4.28518ZM32.125 19.5285C32.125 32.632 21.511 43.3398 8.3125 43.3398V-6.66018C-6.19934 -6.66018 -17.875 5.11394 -17.875 19.5285H32.125ZM8.3125 43.3398H17.8125V-6.66018H8.3125V43.3398ZM42.8125 18.3398V6.4375H-7.1875V18.3398H42.8125ZM42.8125 6.4375C42.8125 19.6042 32.1353 30.25 19 30.25V-19.75C4.55367 -19.75 -7.1875 -8.04259 -7.1875 6.4375H42.8125ZM19 30.25C5.84957 30.25 -4.8125 19.5879 -4.8125 6.4375H45.1875C45.1875 -8.02631 33.4638 -19.75 19 -19.75V30.25ZM-4.8125 6.4375V19.5285H45.1875V6.4375H-4.8125ZM17.8125 56.375H20.1875V6.375H17.8125V56.375ZM-4.8125 31.375V33.75H45.1875V31.375H-4.8125ZM20.1875 8.75H17.8125V58.75H20.1875V8.75ZM42.8125 33.75V31.375H-7.1875V33.75H42.8125ZM27.3357 11.6015L25.6922 9.95442L-9.7013 45.2716L-8.0578 46.9186L27.3357 11.6015ZM25.6922 45.2716L27.3357 43.6245L-8.0578 8.30737L-9.7013 9.95442L25.6922 45.2716ZM-8.0578 43.6245L-6.41429 45.2716L28.9792 9.95442L27.3357 8.30737L-8.0578 43.6245ZM-6.41429 9.95442L-8.0578 11.6015L27.3357 46.9186L28.9792 45.2716L-6.41429 9.95442ZM-7.84772 26.3819L-6.16863 28.061L29.1871 -7.29392L27.508 -8.97305L-7.84772 26.3819ZM-6.16863 -7.29392L-7.84772 -5.61479L27.508 29.7402L29.1871 28.061L-6.16863 -7.29392ZM27.5078 -5.61498L25.8287 -7.29411L-9.52665 28.0612L-7.84753 29.7404L27.5078 -5.61498ZM25.8287 28.0612L27.5078 26.3821L-7.84753 -8.97324L-9.52665 -7.29411L25.8287 28.0612ZM19 -24.5C-5.30207 -24.5 -25 -4.79885 -25 19.5H25C25 22.8134 22.3142 25.5 19 25.5V-24.5ZM-25 19.5C-25 43.8011 -5.30106 63.5 19 63.5V13.5C22.3132 13.5 25 16.1868 25 19.5H-25ZM19 63.5C43.3011 63.5 63 43.8011 63 19.5H13C13 16.1868 15.6868 13.5 19 13.5V63.5ZM63 19.5C63 -4.79885 43.3021 -24.5 19 -24.5V25.5C15.6858 25.5 13 22.8134 13 19.5H63Z"
		mask="url(#path-1-inside-1_395_689)"
	/>
</svg>
