<svg viewBox="0 0 38 28" fill="currentColor" xmlns="http://www.w3.org/2000/svg">
	<path
		d="M37.9989 12.0127L38 22.2168C38 25.0427 35.8284 27.3534 33.088 27.5206L32.7694 27.5303H5.23198C2.45018 27.5303 0.175588 25.3243 0.0109153 22.5405L0.00136906 22.2168L0 12.0127H37.9989ZM30.894 18.7856H26.1389L25.9453 18.7988C25.2491 18.8948 24.7124 19.5011 24.7124 20.2348C24.7124 20.9684 25.2491 21.5747 25.9453 21.6707L26.1389 21.6839H30.894L31.0876 21.6707C31.7839 21.5747 32.3205 20.9684 32.3205 20.2348C32.3205 19.5011 31.7839 18.8948 31.0876 18.7988L30.894 18.7856ZM32.7694 0.469727C35.5512 0.469727 37.8258 2.67573 37.9905 5.45959L38 5.78327L37.9989 9.11438H0L0.00136906 5.78327C0.00136906 2.95737 2.17294 0.646708 4.91334 0.479424L5.23198 0.469727H32.7694Z"
	/>
</svg>
