<svg width="163" height="180" viewBox="0 0 163 180" fill="none" xmlns="http://www.w3.org/2000/svg">
<path d="M74.6547 9.72551C77.3059 3.15337 78.8935 0.641826 80.7559 0.0731956C81.4297 -0.132504 82.2681 0.100896 83.0198 0.703506C83.4969 1.08595 84.2688 2.05635 84.8735 3.03395C86.0922 5.00423 88.2134 9.71897 88.9931 12.191C89.147 12.6787 89.3085 13.0558 89.352 13.0288C89.396 13.0016 89.4054 12.753 89.373 12.4671C89.3255 12.0473 89.3381 11.9543 89.4426 11.9543C89.5936 11.9543 89.7259 12.3602 89.8617 13.2406C89.9549 13.8443 89.9503 13.8869 89.7718 14.077L89.5837 14.2772L89.8484 15.6079C90.179 17.2693 90.418 18.9482 90.587 20.7959C90.6589 21.5825 90.7422 22.4211 90.7719 22.6595C90.8016 22.8979 90.8562 30.2312 90.8931 38.9557C90.9396 49.9426 90.9899 54.9917 91.0568 55.3819C91.11 55.6918 91.2138 56.9094 91.2875 58.0875C91.4312 60.3838 91.5615 61.0541 91.9731 61.6121C92.2859 62.036 91.613 61.6692 99.3925 65.6557C101.323 66.645 102.98 67.5077 103.074 67.5726C103.168 67.6376 103.318 67.6908 103.406 67.6908C103.536 67.6908 103.558 67.6443 103.518 67.4524C103.387 66.8069 103.265 65.4656 103.176 63.66L103.076 61.6664L102.838 61.639L102.6 61.6115L102.6 60.8155C102.601 59.8894 102.697 59.4728 102.992 59.1223C103.178 58.9019 103.216 58.7335 103.297 57.7977C103.464 55.8589 103.841 54.5738 104.275 54.47C105.296 54.2256 109.498 54.0904 111.311 54.2436L112.438 54.3389L112.708 54.6443C113.245 55.2527 113.461 56.4897 113.78 60.7995C113.944 63.0123 113.654 66.5522 113.034 69.8825C112.876 70.7312 112.851 70.7591 112.156 70.8529C111.906 70.8866 111.686 70.9399 111.668 70.9711C111.65 71.0024 111.608 71.2231 111.576 71.4614L111.518 71.8949L112.672 72.4766C113.306 72.7966 114.586 73.4529 115.515 73.9351C116.445 74.4174 118.805 75.6329 120.76 76.6362C122.714 77.6394 125.23 78.9376 126.351 79.521C127.471 80.1042 129.597 81.1968 131.075 81.9488C132.553 82.7008 134.152 83.5203 134.629 83.7699C135.105 84.0196 136.666 84.8191 138.096 85.5467C139.526 86.2743 141.047 87.0544 141.477 87.2801C142.201 87.6609 143.139 88.1432 147.848 90.5537C148.825 91.054 150.21 91.7656 150.925 92.1351C151.64 92.5045 152.83 93.118 153.569 93.4984L157.156 95.3453C158.949 96.2683 159.504 96.5966 159.915 96.9772C161.145 98.1156 162.028 99.9013 162.367 101.932C162.473 102.569 162.645 105.488 162.667 107.023C162.669 107.161 162.62 107.218 162.497 107.218C162.351 107.218 162.323 107.16 162.323 106.849C162.323 106.647 162.298 106.222 162.268 105.905L162.213 105.329L161.467 105.113C160.027 104.698 149.001 101.497 147.414 101.033C142.384 99.5631 139.462 98.7229 139.38 98.7229C139.181 98.7229 139.091 98.9882 139.009 99.8144C138.889 101.009 138.652 102.34 138.528 102.51C138.193 102.968 137.9 101.858 137.721 99.4561C137.643 98.4075 137.497 98.1004 137.025 97.9899C136.776 97.9316 135.651 97.6065 132.245 96.6079C131.029 96.2514 129.293 95.7454 128.388 95.4835C127.482 95.2215 125.844 94.7459 124.747 94.4266C122.098 93.655 121.769 93.5665 121.725 93.6127C121.705 93.6343 121.624 94.0913 121.546 94.6282C121.357 95.9205 121.103 96.7493 120.906 96.7125C120.683 96.6708 120.464 95.8956 120.251 94.3955L120.061 93.0586L116.249 91.9509C114.153 91.3417 112.241 90.7817 112 90.7064C111.672 90.6038 111.273 90.5757 110.409 90.5939L109.256 90.6181L109.057 91.4086C108.846 92.2423 108.634 92.7418 108.49 92.7418C108.365 92.7418 108.24 92.4272 107.982 91.4674L107.754 90.6181L106.568 90.594L105.382 90.57L105.343 90.8541C105.087 92.7292 104.831 93.7751 104.61 93.8488C104.381 93.925 104.03 92.6989 103.834 91.1382L103.769 90.6181L97.3333 90.596L90.8977 90.5737L90.8976 111.14C90.8975 132.82 90.9033 132.444 90.5076 136.43C90.0839 140.695 89.158 146.564 88.2374 150.819C87.9497 152.148 87.9347 152.29 88.0248 152.829C88.1609 153.644 88.5072 154.316 89.1329 154.98C89.5595 155.432 93.3387 157.756 94.7194 158.602C94.7934 158.588 97.1564 160.128 98.2729 160.813C101.135 162.572 105.842 165.45 108.191 166.878C110.842 168.49 110.879 168.527 111.195 169.872C111.341 170.496 111.379 171.026 111.417 172.956L111.462 175.287L111.257 175.237C111.144 175.209 108.652 174.656 105.72 174.009C102.788 173.361 99.1802 172.56 97.7023 172.229C96.2243 171.897 92.9007 171.158 90.3163 170.587C87.732 170.015 85.5253 169.524 85.4126 169.496C85.2103 169.445 85.2037 169.465 84.883 171.118C84.0761 175.279 83.1591 178.404 82.5229 179.16L82.3008 179.424H81.3584C80.4951 179.424 80.4008 179.408 80.2359 179.23C79.5945 178.542 78.6856 175.512 77.8885 171.406C77.6849 170.357 77.5134 169.49 77.5074 169.48C77.5015 169.47 75.9383 169.807 74.0337 170.23C72.1291 170.653 69.6737 171.197 68.5771 171.44C67.4806 171.683 66.1544 171.978 65.6299 172.096C65.1055 172.214 61.751 172.957 58.1753 173.747C54.5997 174.538 51.583 175.207 51.4717 175.235L51.2692 175.286L51.3049 172.956C51.3511 169.931 51.5289 169.046 52.2261 168.367C52.3705 168.227 53.5926 167.44 54.9419 166.619C56.2912 165.797 57.7658 164.899 58.2187 164.621C58.6716 164.344 60.3099 163.343 61.8593 162.397C63.4087 161.452 64.813 160.591 64.9798 160.485C65.4883 160.162 66.3108 159.66 68.6639 158.235C69.9034 157.485 71.0151 156.805 71.1343 156.724C71.2534 156.643 71.7325 156.348 72.1988 156.068C73.6281 155.21 74.4714 154.12 74.6971 152.839C74.7796 152.37 74.7587 152.178 74.4852 150.897C73.5917 146.711 72.7974 141.809 72.3093 137.47C71.8527 133.41 71.882 134.973 71.8315 111.985L71.7843 90.6181L65.3551 90.5959L58.9261 90.5736L58.8675 91.1594C58.7346 92.492 58.3654 93.8253 58.1293 93.8253C57.9366 93.8253 57.6155 92.7622 57.4552 91.5933L57.3154 90.5748H56.1686C55.4765 90.5748 54.9998 90.6102 54.9666 90.6639C54.9363 90.713 54.8007 91.1661 54.6652 91.671C54.3983 92.6658 54.3096 92.8281 54.1189 92.6698C54.013 92.5818 53.639 91.4616 53.4992 90.8132L53.4479 90.5748L52.3009 90.576L51.1541 90.5772L46.9079 91.8181C42.0225 93.2458 42.6182 92.8967 42.4478 94.4321C42.3949 94.9089 42.2695 95.6044 42.169 95.9779C41.9951 96.6242 41.8319 96.8467 41.6587 96.6735C41.5409 96.5557 41.2449 95.3122 41.1356 94.4755C41.002 93.4523 41.0389 93.5096 40.6047 93.6511C40.3998 93.7181 37.545 94.5533 37.545 94.5533L31.9974 96.1648C29.1978 96.9781 27.0347 97.6109 25.8646 97.9589C25.5329 98.0576 25.2795 98.1816 25.2795 98.2453C25.2795 98.3071 25.2268 98.3779 25.1623 98.4026C25.079 98.4346 25.0275 98.7265 24.984 99.413C24.9156 100.494 24.719 101.915 24.5785 102.342C24.4743 102.659 24.2905 102.708 24.155 102.455C24.0437 102.247 23.7583 100.57 23.6758 99.6397C23.5925 98.6994 23.5322 98.65 22.738 98.8732C21.8387 99.126 15.024 101.1 11.9305 102.004C10.4764 102.429 8.44806 103.02 7.42305 103.316C2.87529 104.633 0.533501 105.324 0.500561 105.356C0.448721 105.408 0.425314 105.703 0.412914 106.462C0.404164 106.994 0.372432 107.148 0.263042 107.19C0.127042 107.242 -0.0551689 107.066 0.0159111 106.951C0.0357611 106.919 0.0894153 105.922 0.135265 104.736C0.286435 100.825 0.875967 98.987 2.53688 97.2485C3.24152 96.5109 3.06435 96.6134 8.15986 93.9977C9.06569 93.5327 10.4699 92.8113 11.2804 92.3945C12.0909 91.9777 13.5341 91.2365 14.4876 90.7473C15.4411 90.258 16.8454 89.5366 17.6082 89.144C18.371 88.7514 19.9313 87.9516 21.0755 87.3668C22.2197 86.7818 24.2285 85.7487 25.5396 85.0708C26.8507 84.3928 29.2105 83.1839 30.7838 82.384C32.3571 81.5843 33.7613 80.8624 33.9044 80.7799C34.0474 80.6973 35.1396 80.1321 36.3315 79.5238C37.5233 78.9153 38.9276 78.1935 39.452 77.9196C39.9765 77.6457 41.3027 76.963 42.3992 76.4024C45.7056 74.7119 51.1517 71.9109 51.1882 71.8822C51.207 71.8674 51.1875 71.6499 51.1449 71.3988L51.0674 70.9422L50.5192 70.8443C50.2177 70.7906 49.9397 70.7123 49.9013 70.6705C49.8181 70.5801 49.4395 68.5555 49.2548 67.214C48.887 64.5425 48.807 62.4817 48.9805 60.1494C49.2684 56.2807 49.4666 55.2248 50.0173 54.6274C50.2824 54.3398 50.3053 54.3331 51.2841 54.2529C53.2161 54.0946 56.7819 54.1795 58.1726 54.4169C58.8384 54.5305 59.2026 55.4594 59.3632 57.4537C59.4526 58.5627 59.4908 58.7535 59.6726 58.997C59.9821 59.4112 60.1257 60.0004 60.1257 60.8566V61.623H59.8748H59.624L59.5686 63.0749C59.5183 64.3954 59.331 66.6172 59.1988 67.4641L59.1462 67.8011L61.3045 66.6939C62.4916 66.085 63.931 65.3437 64.5031 65.0468C65.0752 64.7499 66.5964 63.9695 67.8837 63.3125C69.1709 62.6556 70.3349 62.0164 70.4705 61.8922C70.7783 61.6101 71.0808 61.0191 71.2072 60.4528C71.2604 60.2144 71.3663 59.0442 71.4425 57.8523C71.5187 56.6605 71.6227 55.4708 71.6738 55.2085C71.7364 54.8871 71.7852 49.5779 71.8235 38.9123C71.8739 24.9153 71.8974 22.9231 72.0282 21.6193C72.301 18.8994 72.5189 17.3865 72.9244 15.3957L73.1503 14.2864L72.964 14.088C72.7905 13.9034 72.7837 13.8481 72.8639 13.2825C72.9718 12.5215 73.135 12.0227 73.2932 11.9708C73.3929 11.938 73.405 12.027 73.36 12.4586C73.3296 12.7489 73.3399 13.0081 73.3828 13.0346C73.4256 13.061 73.5815 12.6937 73.7292 12.2184C73.8769 11.743 74.2933 10.6212 74.6547 9.72551Z" fill="#D9D9D9"/>
</svg>
