<svg viewBox="-3 -3 42 47" fill="currentColor" xmlns="http://www.w3.org/2000/svg">
	<path
		d="M32.9333 22.7686C33.207 22.7686 33.4289 22.5411 33.4289 22.2606V20.2774C33.4289 19.9968 33.207 19.7694 32.9333 19.7694H27.9758L29.3329 22.7686H32.9333Z"
	/>
	<path
		d="M8.28602 39.9659C8.28602 40.5371 8.73806 41 9.29562 41H33.1878C33.7455 41 34.1974 40.5371 34.1974 39.9659V38.2306H8.28602V39.9659Z"
	/>
	<path
		d="M9.32668 0.558156L7.79885 0.552467L11.4552 10.1946L12.6556 9.73507C13.3111 9.48414 13.6439 8.73638 13.3989 8.06489L11.1295 1.84458C10.8482 1.07335 10.1302 0.561059 9.32668 0.558156Z"
	/>
	<path
		d="M35.0393 28.9711C34.9164 28.1711 34.3242 27.5319 33.5508 27.3642L30.5102 26.7053C29.9224 26.5779 29.4276 26.1742 29.175 25.6156L25.9889 18.5723C25.4436 17.4058 24.2934 16.6607 23.0282 16.6607H13.8989C13.0466 16.6607 12.2822 16.1233 11.9755 15.3086L10.3252 10.9235L6.50871 0.858891C6.20244 0.333246 5.64669 0 5.03494 0L1.26324 0.447734C0.409611 0.447734 -0.197942 1.29768 0.0598142 2.13138L5.27581 18.5504C5.62957 19.6941 5.80946 20.8866 5.80946 22.0864V34.3248C5.80946 35.7266 6.91881 36.8629 8.28727 36.8629H8.28602V36.8872H34.1974V36.8629H34.5171C35.4277 36.8629 36.1231 36.0298 35.9817 35.1082L35.0393 28.9711Z"
	/>
</svg>
