<svg viewBox="0 0 41 40" fill="currentColor" xmlns="http://www.w3.org/2000/svg">
	<path
		d="M26.2386 2.85106C26.2386 1.40426 24.9754 0.5 23.4234 0.5C23.4234 0.5 17.5044 0.5 17.5405 0.5C16.0246 0.5 14.7254 1.40426 14.7254 2.85106V6.82979H9.20335V34.5H31.7967V6.82979H26.2386V2.85106ZM24.1813 6.82979H16.7826V2.74255H24.1813V6.82979Z"
	/>
	<path
		d="M0 10.9532C0 11.0255 0 30.2319 0 30.2319C0 32.9085 2.02113 34.4638 4.11444 34.4638H7.14613V6.75745H4.11444C1.98504 6.75745 0 8.56596 0 10.9532Z"
	/>
	<path
		d="M36.8856 6.75745H33.8539V34.4638H36.8856C38.9789 34.4638 41 32.9085 41 30.2319C41 30.2319 41 11.0255 41 10.9532C41 8.56596 39.015 6.75745 36.8856 6.75745Z"
	/>
</svg>
