<svg viewBox="0 0 80 50" fill="none" xmlns="http://www.w3.org/2000/svg">
    <path d="M79.1998 4.91H0.799805V44.11H79.1998V4.91Z" fill="#F6F6F6" />
    <path
        fill-rule="evenodd"
        clip-rule="evenodd"
        d="M73.3198 0.5C69.3998 0.500001 27.8972 0.499999 4.7198 0.5C2.7598 0.500001 0.799805 2.46 0.799805 4.42V10.3H79.1998C79.1998 10.3 79.1998 19.4003 79.1998 6.38C79.1998 2.46 77.2398 0.5 73.3198 0.5Z"
        fill="#265697"
    />
    <path
        fill-rule="evenodd"
        clip-rule="evenodd"
        d="M0.799805 39.7C0.799805 39.7 0.799805 39.7 0.799805 43.62C0.799804 47.54 2.7598 49.5 6.6798 49.5C28.5452 49.5 69.3998 49.5 73.3198 49.5C77.2398 49.5 79.1998 47.54 79.1998 43.62V39.7H0.799805Z"
        fill="#D97B16"
    />
    <path
        fill-rule="evenodd"
        clip-rule="evenodd"
        d="M55.4905 15.0932C54.3916 14.672 52.67 14.22 50.5198 14.22C45.0397 14.22 41.1795 17.04 41.1465 21.0814C41.1157 24.0689 43.9024 25.7354 46.0061 26.73C48.1649 27.7491 48.8906 28.399 48.8802 29.309C48.8666 30.7027 47.1563 31.3394 45.5623 31.3394C43.3425 31.3394 42.1632 31.0243 40.3417 30.248L39.627 29.9176L38.8486 34.5719C40.1439 35.1522 42.5394 35.6551 45.0266 35.6811C50.8564 35.6811 54.6411 32.8935 54.6841 28.5778C54.705 26.2126 53.2273 24.4127 50.0277 22.9289C48.0892 21.9671 46.902 21.3252 46.9145 20.3513C46.9145 19.4871 47.9194 18.563 50.0906 18.563C51.9043 18.5342 53.2179 18.9383 54.2416 19.3596L54.7386 19.5995L55.4905 15.0932Z"
        fill="#265697"
    />
    <path
        fill-rule="evenodd"
        clip-rule="evenodd"
        d="M69.7125 14.6012H65.427C64.0995 14.6012 63.1059 14.9714 62.5229 16.3253L54.2861 35.3792H60.11C60.11 35.3792 61.0621 32.8172 61.2775 32.2548C61.9139 32.2548 67.5716 32.2637 68.3803 32.2637C68.5463 32.9915 69.0551 35.3792 69.0551 35.3792H74.2013L69.7125 14.6012ZM62.8736 28.0021C63.3323 26.8042 65.0833 22.1901 65.0833 22.1901C65.0505 22.2454 65.5385 20.9863 65.8186 20.2057L66.1934 21.9983C66.1934 21.9983 67.2554 26.9612 67.4774 28.0019L62.8736 28.0021Z"
        fill="#265697"
    />
    <path
        fill-rule="evenodd"
        clip-rule="evenodd"
        d="M29.833 35.3726L33.3005 14.5813H38.8466L35.3767 35.3726H29.833Z"
        fill="#265697"
    />
    <path
        fill-rule="evenodd"
        clip-rule="evenodd"
        d="M25.1805 14.5965L19.7508 28.7746L19.1722 25.8933C18.1614 22.5719 15.0121 18.9733 11.4912 17.1717L16.4561 35.3546L22.324 35.3478L31.0553 14.5965H25.1805Z"
        fill="#265697"
    />
    <path
        fill-rule="evenodd"
        clip-rule="evenodd"
        d="M14.714 14.5836H5.77098L5.7002 15.0162C12.6578 16.7372 17.2616 20.8962 19.1726 25.8933L17.228 16.3389C16.8923 15.0224 15.9186 14.6295 14.714 14.5836Z"
        fill="#D97B16"
    />
</svg>
